{"title":"Cyberbully.2011.DvDRip.XviD.Ac3.Feel-Free","uid":7019314,"size":1335946198,"categoryP":"video","categoryS":"movies","magnet":"?xt=urn:btih:ce40bdb8dc4f8c107ef5938146fbd2284f240977&amp;dn=Cyberbully.2011.DvDRip.XviD.Ac3.Feel-Free&amp;tr=udp%3A%2F%2Ftracker.openbittorrent.com%3A80&amp;tr=udp%3A%2F%2Fopen.demonii.com%3A1337&amp;tr=udp%3A%2F%2Ftracker.coppersurfer.tk%3A6969&amp;tr=udp%3A%2F%2Fexodus.desync.com%3A6969","seeders":0,"leechers":1,"uploader":null,"files":9,"time":1328779072,"description":"Genre:Drama\nLanguage:English &lt;a href=&quot;\nhttp://www.imdb.com/title/tt1930315/&quot; rel=&quot;nofollow&quot; target=&quot;_NEW&quot;&gt;\nhttp://www.imdb.com/title/tt1930315/&lt;/a&gt;\nSource:DVD Thanks!\nEncoder:Tony &lt;a href=&quot;\nhttp://img685.imageshack.us/img685/2243/vlcsnap2012020909h17m05.png&quot; rel=&quot;nofollow&quot; target=&quot;_NEW&quot;&gt;\nhttp://img685.imageshack.us/img685/2243/vlcsnap2012020909h17m05.png&lt;/a&gt; &lt;a href=&quot;\nhttp://img254.imageshack.us/img254/55/vlcsnap2012020909h17m14.png&quot; rel=&quot;nofollow&quot; target=&quot;_NEW&quot;&gt;\nhttp://img254.imageshack.us/img254/55/vlcsnap2012020909h17m14.png&lt;/a&gt;\nFormat : AVI\nFormat/Info : Audio Video Interleave\nFile size : 1.24 GiB\nDuration : 1h 26mn\nOverall bit rate : 2 045 Kbps\n\nVideo\nID : 0\nFormat : MPEG-4 Visual\nFormat profile : Advanced Simple@L5\nFormat settings, BVOP : 1\nFormat settings, QPel : No\nFormat settings, GMC : No warppoints\nFormat settings, Matrix : Default (H.263)\nCodec ID : XVID\nCodec ID/Hint : XviD\nDuration : 1h 26mn\nBit rate : 1 586 Kbps\nWidth : 640 pixels\nHeight : 360 pixels\nDisplay aspect ratio : 16:9\nFrame rate : 29.970 fps\nColor space : YUV\nChroma subsampling : 4:2:0\nBit depth : 8 bits\nScan type : Progressive\nCompression mode : Lossy\nBits/(Pixel*Frame) : 0.230\nStream size : 986 MiB (78%)\nWriting library : XviD 1.2.1 (UTC 2008-12-04)\n\nAudio\nID : 1\nFormat : AC-3\nFormat/Info : Audio Coding 3\nMode extension : CM (complete main)\nCodec ID : 2000\nDuration : 1h 26mn\nBit rate mode : Constant\nBit rate : 448 Kbps\nChannel(s) : 2 channels\nChannel positions : Front: L R\nSampling rate : 48.0 KHz\nBit depth : 16 bits\nCompression mode : Lossy\nStream size : 279 MiB (22%)\nAlignment : Aligned on interleaves\nInterleave, duration : 33 ms (1.00 video frame)\nInterleave, preload duration : 512 ms\n\n\nPlot:\nTeen girl Taylor Hillridge gets a a laptop for her birthday and signs up on a social networking site...","torrent":{"xt":"urn:btih:ce40bdb8dc4f8c107ef5938146fbd2284f240977","amp;dn":"Cyberbully.2011.DvDRip.XviD.Ac3.Feel-Free","amp;tr":["udp%3A%2F%2Ftracker.openbittorrent.com%3A80","udp%3A%2F%2Fopen.demonii.com%3A1337","udp%3A%2F%2Ftracker.coppersurfer.tk%3A6969","udp%3A%2F%2Fexodus.desync.com%3A6969"],"infoHash":"ce40bdb8dc4f8c107ef5938146fbd2284f240977","infoHashBuffer":{"type":"Buffer","data":[206,64,189,184,220,79,140,16,126,245,147,129,70,251,210,40,79,36,9,119]},"announce":[],"urlList":[]}}